<svg id="Layer_1" data-name="Layer 1" xmlns="http://www.w3.org/2000/svg" viewBox="0 0 595.28 841.89"><defs><style>.cls-1,.cls-2{fill:#fff;}.cls-2{font-size:51px;font-family:SpartanMB-Black, Spartan MB;font-weight:800;}.cls-3{letter-spacing:-0.02em;}.cls-4{letter-spacing:0em;}.cls-5{letter-spacing:0em;}.cls-6{letter-spacing:-0.01em;}.cls-7{letter-spacing:-0.04em;}.cls-8{letter-spacing:-0.02em;}.cls-9{letter-spacing:0em;}.cls-10{letter-spacing:0em;}</style></defs><rect width="595.28" height="841.89"/><path d="M299.56,388.15c-5.73,0-11.47,0-17.2,0-4.49,0-5.78-1.35-5.8-5.84q0-12.76,0-25.52c0-4.24,1.48-5.7,5.69-5.73,4.68,0,9.36,0,14.05,0a5.93,5.93,0,0,1,5.13,2.55q9.88,13,19.91,25.89c1.49,1.92,2.07,3.85,1,6.08s-3.09,2.62-5.31,2.62C311.22,388.14,305.39,388.15,299.56,388.15Z"/><path class="cls-1" d="M258.37,423.89V420q0-40.35,0-80.7c0-5.13,1.27-6.41,6.45-6.41,13,0,26,0,39.06,0a7.85,7.85,0,0,1,6.85,3.32c9.47,12.39,19.08,24.67,28.5,37.1a9,9,0,0,1,1.42,5c.18,5.25.06,10.52.06,15.79v68.63c0,5-1.55,6.53-6.47,6.54h-5.62c1-10.09-1.56-18.77-8.78-25.75a28,28,0,0,0-19.35-8.12,28.52,28.52,0,0,0-22.93,9.84c-6,6.74-8.1,14.76-7,23.84H192.89c1.05-10.73-2-19.93-10.31-26.95a29.28,29.28,0,0,0-47.72,27H120.52c1-10.35-1.78-19.28-9.53-26.27a28.08,28.08,0,0,0-19.91-7.44,29.17,29.17,0,0,0-28.57,33.84,47.81,47.81,0,0,1-6.81-.07,4.36,4.36,0,0,1-4.06-4.47q-.07-18.09,0-36.18a4.47,4.47,0,0,1,4.57-4.53c.86,0,1.73,0,2.59,0H258.37Zm41.19-35.74c5.83,0,11.66,0,17.49,0,2.22,0,4.25-.38,5.31-2.62s.47-4.16-1-6.08q-10-12.88-19.91-25.89A5.93,5.93,0,0,0,296.3,351c-4.69.05-9.37,0-14.05,0-4.21,0-5.67,1.49-5.69,5.73q0,12.77,0,25.52c0,4.49,1.31,5.81,5.8,5.84C288.09,388.19,293.83,388.15,299.56,388.15Z"/><path class="cls-1" d="M300.06,485.38a20.39,20.39,0,1,1,0-40.77,20.54,20.54,0,0,1,20.35,20.28A20.33,20.33,0,0,1,300.06,485.38Z"/><path class="cls-1" d="M91.76,485.37a20.38,20.38,0,0,1,0-40.76,20.38,20.38,0,1,1,0,40.76Z"/><path class="cls-1" d="M164.14,485.37a20.38,20.38,0,0,1,.08-40.76,20.38,20.38,0,1,1-.08,40.76Z"/><path class="cls-1" d="M239.41,309.14v93.21c0,5.3-1.28,6.58-6.57,6.58H186.37V339.51c0-8.4-3.19-11.57-11.63-11.57h-44.5c-7.22,0-10.8,3.55-10.8,10.72q0,33.3,0,66.61v3.46c-.63.08-1,.18-1.36.18q-23.25,0-46.51,0c-3.45,0-5-1.9-5-5.83q0-41.49,0-83V308.74c-1.46.79-2.6,1.39-3.71,2-3.23,1.84-5.74,1.49-7.23-1s-.65-5,2.44-6.87l82.58-50.2c3-1.84,6.1-3.61,9-5.59,2.29-1.55,4.3-1.47,6.62,0,10,6.22,20,12.35,30,18.51.47.29,1,.54,1.76,1,.08-1.06.19-1.86.19-2.66,0-5.83,0-11.67,0-17.51,0-3.19,1.31-4.79,4.41-4.86,7.85-.16,15.7-.18,23.54,0,3.28.07,4.7,2.12,4.7,6,0,11.87.12,23.74-.07,35.61a5.75,5.75,0,0,0,3.31,5.84c7.77,4.52,15.4,9.26,23,14a9.44,9.44,0,0,1,3,2.61,4.14,4.14,0,0,1-.52,5.52,4.19,4.19,0,0,1-5.24.92C242.87,311.19,241.42,310.28,239.41,309.14Zm-86.53,5.63c4.3,0,8.61,0,12.92,0,3.58,0,5.18-1.45,5.21-5q.12-13,0-26.12c0-3.36-1.61-5-5-5q-13-.14-26.12,0c-3.55,0-5,1.64-5,5.18q0,12.93,0,25.84c0,3.56,1.53,5.06,5.07,5.09C144.26,314.8,148.57,314.77,152.88,314.77Z"/><path class="cls-1" d="M177.22,408.8H128.69V337.18h48.53ZM142.08,367c-.76,0-1.53,0-2.29,0-3.15.17-4.86,2.32-4.32,5.41.48,2.78,2.2,3.54,7.74,3.43,3.61-.07,5.18-1.12,5.51-3.7a5.43,5.43,0,0,0,0-.57C148.82,368.17,147.06,367,142.08,367Z"/><path d="M152.88,314.77c-4.31,0-8.62,0-12.92,0-3.54,0-5.05-1.53-5.07-5.09q0-12.92,0-25.84c0-3.54,1.48-5.14,5-5.18q13.07-.12,26.12,0c3.36,0,4.94,1.64,5,5q.12,13.06,0,26.12c0,3.53-1.63,5-5.21,5C161.49,314.79,157.18,314.77,152.88,314.77Zm8.88-9.06V287.82H144v17.89Z"/><path d="M142.08,367c5,0,6.74,1.21,6.66,4.58a5.43,5.43,0,0,1,0,.57c-.33,2.58-1.9,3.63-5.51,3.7-5.54.11-7.26-.65-7.74-3.43-.54-3.09,1.17-5.24,4.32-5.41C140.55,366.93,141.32,367,142.08,367Z"/><path class="cls-1" d="M161.76,305.71H144V287.82h17.77Z"/><text class="cls-2" transform="translate(349.75 288.87)"><tspan class="cls-3">R</tspan><tspan x="33.78" y="0">an</tspan><tspan class="cls-4" x="96.27" y="0">g</tspan><tspan class="cls-5" x="127.36" y="0">e</tspan><tspan class="cls-6" x="154.62" y="0">r</tspan><tspan x="178.55" y="0">s </tspan><tspan class="cls-7" x="0" y="61.2">P</tspan><tspan x="29.44" y="61.2">ac</tspan><tspan class="cls-8" x="82.48" y="61.2">k</tspan><tspan class="cls-9" x="113.29" y="61.2">e</tspan><tspan class="cls-6" x="140.55" y="61.2">r</tspan><tspan x="164.47" y="61.2">s </tspan><tspan x="0" y="122.4">&amp; </tspan><tspan x="0" y="183.6">M</tspan><tspan class="cls-4" x="43.81" y="183.6">o</tspan><tspan class="cls-10" x="73.83" y="183.6">v</tspan><tspan class="cls-9" x="104.04" y="183.6">e</tspan><tspan class="cls-6" x="131.3" y="183.6">r</tspan><tspan x="155.23" y="183.6">s</tspan></text></svg>